<svg xmlns="http://www.w3.org/2000/svg" width="56.646" height="57.315" viewBox="0 0 56.646 57.315"><g transform="translate(-62.265 -77.328)"><g transform="translate(90.274 79.677) rotate(56)" fill="none"><path d="M16.5-5.074A16.777,16.777,0,0,1,33.369,11.589c0,9.389-7.131,22.593-16.243,22.593S.589,20.7.589,11.316,7.387-5.074,16.5-5.074Z" stroke="none"/><path d="M 16.50000190734863 -2.074462890625 C 12.91068267822266 -2.074462890625 9.636272430419922 -0.7377643585205078 7.279943466186523 1.689416885375977 C 4.90007209777832 4.140846252441406 3.589412689208984 7.559486389160156 3.589412689208984 11.31557655334473 C 3.589412689208984 13.30794620513916 3.989103317260742 15.59296607971191 4.745273590087891 17.9235954284668 C 5.514902114868164 20.29571533203125 6.621322631835938 22.61081695556641 7.944923400878906 24.61862564086914 C 10.69480323791504 28.78999710083008 14.04101181030273 31.18239593505859 17.12552261352539 31.18239593505859 C 18.66061401367188 31.18239593505859 20.22361373901367 30.62524604797363 21.77109146118164 29.52642631530762 C 23.32425308227539 28.42357635498047 24.83933258056641 26.7775764465332 26.15252304077148 24.76638603210449 C 28.75327301025391 20.78329658508301 30.36889266967773 15.73404693603516 30.36889266967773 11.58907699584961 C 30.36889266967773 7.908367156982422 28.90987205505371 4.462976455688477 26.2606029510498 1.887596130371094 C 24.9798526763916 0.6425762176513672 23.49120330810547 -0.3349533081054688 21.83601379394531 -1.017843246459961 C 20.13664245605469 -1.718963623046875 18.34134292602539 -2.074462890625 16.50000190734863 -2.074462890625 M 16.50000190734863 -5.074462890625 C 25.61269378662109 -5.074462890625 33.36889266967773 2.200237274169922 33.36889266967773 11.58907699584961 C 33.36889266967773 20.97792625427246 26.23822212219238 34.18239593505859 17.12552261352539 34.18239593505859 C 8.012823104858398 34.18239593505859 0.5894126892089844 20.70441627502441 0.5894126892089844 11.31557655334473 C 0.5894126892089844 1.926736831665039 7.387302398681641 -5.074462890625 16.50000190734863 -5.074462890625 Z" stroke="none" fill="#ce74c2"/></g><g transform="matrix(-0.588, -0.809, 0.809, -0.588, 90.534, 132.331)" fill="none"><path d="M15.992-4.092c9.113,0,16.77,6.825,16.77,16.214S25.909,35.159,16.8,35.159.115,21.368.115,11.979,6.879-4.092,15.992-4.092Z" stroke="none"/><path d="M 15.99207878112793 -1.092216491699219 C 14.1392879486084 -1.092216491699219 12.38892936706543 -0.7649288177490234 10.78961944580078 -0.1194477081298828 C 9.257198333740234 0.4990520477294922 7.902318954467773 1.393362045288086 6.762628555297852 2.538661956787109 C 5.616727828979492 3.690200805664063 4.721057891845703 5.062841415405273 4.100519180297852 6.618452072143555 C 3.446359634399414 8.258340835571289 3.114667892456055 10.06188201904297 3.114667892456055 11.97894096374512 C 3.114667892456055 13.96896171569824 3.521759033203125 16.26947212219238 4.291919708251953 18.63178253173828 C 5.07659912109375 21.03861236572266 6.202068328857422 23.39429092407227 7.546659469604492 25.44417190551758 C 10.34560966491699 29.71128082275391 13.71692848205566 32.15859985351563 16.79615783691406 32.15859985351563 C 18.30488967895508 32.15859985351563 19.83658981323242 31.59024238586426 21.34869003295898 30.46932220458984 C 22.87429809570313 29.33838081359863 24.36130905151367 27.64640235900879 25.64894866943359 25.57629203796387 C 26.90316772460938 23.55992126464844 27.95019912719727 21.22186279296875 28.67685890197754 18.81487274169922 C 29.38677978515625 16.46328163146973 29.76202774047852 14.14872169494629 29.76202774047852 12.12142181396484 C 29.76202774047852 8.47926139831543 28.33220863342285 5.12489128112793 25.73593902587891 2.676240921020508 C 23.15932846069336 0.2461109161376953 19.69888877868652 -1.092216491699219 15.99207878112793 -1.092216491699219 M 15.99207878112793 -4.092216491699219 C 25.10477828979492 -4.092216491699219 32.76202774047852 2.732582092285156 32.76202774047852 12.12142181396484 C 32.76202774047852 21.51026153564453 25.90884780883789 35.15859985351563 16.79615783691406 35.15859985351563 C 7.68345832824707 35.15859985351563 0.1146697998046875 21.36778259277344 0.1146697998046875 11.97894096374512 C 0.1146697998046875 2.59010124206543 6.879379272460938 -4.092216491699219 15.99207878112793 -4.092216491699219 Z" stroke="none" fill="#2ed2ec"/></g><g transform="translate(74 95)" fill="none" stroke="#2e61ec" stroke-width="3"><ellipse cx="16.5" cy="17" rx="16.5" ry="17" stroke="none"/><ellipse cx="16.5" cy="17" rx="15" ry="15.5" fill="none"/></g><g transform="translate(74 83)" fill="none" stroke="#7e3ce1" stroke-width="3"><ellipse cx="16.5" cy="17" rx="16.5" ry="17" stroke="none"/><ellipse cx="16.5" cy="17" rx="15" ry="15.5" fill="none"/></g><g transform="translate(87 103)" fill="#0d173e" stroke="#b9b9b9" stroke-width="1"><circle cx="4" cy="4" r="4" stroke="none"/><circle cx="4" cy="4" r="3.5" fill="none"/></g></g></svg>